HIERARCHY
ROOT Hips
{
    OFFSET   0.000000   0.000000   0.000000
    CHANNELS 6 Xposition Yposition Zposition Zrotation Xrotation Yrotation
    JOINT Chest
    {
        OFFSET   0.000000   8.007230   0.000000
        CHANNELS 3 Zrotation Xrotation Yrotation
        JOINT Chest2
        {
            OFFSET   0.000000  22.077100   0.000000
            CHANNELS 3 Zrotation Xrotation Yrotation
            JOINT Neck
            {
                OFFSET   0.000000  23.254700   0.000000
                CHANNELS 3 Zrotation Xrotation Yrotation
                JOINT Head
                {
                    OFFSET   0.000010  14.370000   1.956610
                    CHANNELS 3 Zrotation Xrotation Yrotation
                    End Site
                    {
                        OFFSET   0.000000  19.566000   0.000000
                    }
                }
            }
            JOINT LeftCollar
            {
                OFFSET   3.911900  19.017000  -0.467063
                CHANNELS 3 Zrotation Xrotation Yrotation
                JOINT LeftShoulder
                {
                    OFFSET  10.383700   0.000000   0.000000
                    CHANNELS 3 Zrotation Xrotation Yrotation
                    JOINT LeftElbow
                    {
                        OFFSET  26.662100   0.001671   0.000522
                        CHANNELS 3 Zrotation Xrotation Yrotation
                        JOINT LeftWrist
                        {
                            OFFSET  28.869000   0.000037  -0.000114
                            CHANNELS 3 Zrotation Xrotation Yrotation
                            JOINT LeftFinger0
                            {
                                OFFSET   2.044650  -2.323450   3.252850
                                CHANNELS 3 Zrotation Xrotation Yrotation
                                JOINT LeftFinger01
                                {
                                    OFFSET   3.088140   0.000000   0.000000
                                    CHANNELS 3 Zrotation Xrotation Yrotation
                                    JOINT LeftFinger02
                                    {
                                        OFFSET   2.639460   0.000000   0.000000
                                        CHANNELS 3 Zrotation Xrotation Yrotation
                                        End Site
                                        {
                                            OFFSET   2.582190   0.000000   0.000000
                                        }
                                    }
                                }
                            }
                            JOINT LeftFinger1
                            {
                                OFFSET   8.364480   0.000000   3.252850
                                CHANNELS 3 Zrotation Xrotation Yrotation
                                JOINT LeftFinger11
                                {
                                    OFFSET   4.646930   0.000000   0.000000
                                    CHANNELS 3 Zrotation Xrotation Yrotation
                                    JOINT LeftFinger12
                                    {
                                        OFFSET   2.323470   0.000000   0.000000
                                        CHANNELS 3 Zrotation Xrotation Yrotation
                                        End Site
                                        {
                                            OFFSET   2.273050   0.000000   0.000000
                                        }
                                    }
                                }
                            }
                            JOINT LeftFinger2
                            {
                                OFFSET   8.364490   0.000016   1.078090
                                CHANNELS 3 Zrotation Xrotation Yrotation
                                JOINT LeftFinger21
                                {
                                    OFFSET   5.111620   0.000000   0.000000
                                    CHANNELS 3 Zrotation Xrotation Yrotation
                                    JOINT LeftFinger22
                                    {
                                        OFFSET   2.788150   0.000013   0.000000
                                        CHANNELS 3 Zrotation Xrotation Yrotation
                                        End Site
                                        {
                                            OFFSET   2.727660   0.000000   0.000000
                                        }
                                    }
                                }
                            }
                            JOINT LeftFinger3
                            {
                                OFFSET   7.899780   0.000016  -1.078090
                                CHANNELS 3 Zrotation Xrotation Yrotation
                                JOINT LeftFinger31
                                {
                                    OFFSET   4.646930   0.000000   0.000000
                                    CHANNELS 3 Zrotation Xrotation Yrotation
                                    JOINT LeftFinger32
                                    {
                                        OFFSET   2.323470   0.000000   0.000000
                                        CHANNELS 3 Zrotation Xrotation Yrotation
                                        End Site
                                        {
                                            OFFSET   2.273050   0.000000   0.000000
                                        }
                                    }
                                }
                            }
                            JOINT LeftFinger4
                            {
                                OFFSET   7.435080   0.000000  -3.252850
                                CHANNELS 3 Zrotation Xrotation Yrotation
                                JOINT LeftFinger41
                                {
                                    OFFSET   3.717550   0.000000   0.000000
                                    CHANNELS 3 Zrotation Xrotation Yrotation
                                    JOINT LeftFinger42
                                    {
                                        OFFSET   1.858760   0.000000   0.000000
                                        CHANNELS 3 Zrotation Xrotation Yrotation
                                        End Site
                                        {
                                            OFFSET   1.818440   0.000000   0.000000
                                        }
                                    }
                                }
                            }
                        }
                    }
                }
            }
            JOINT RightCollar
            {
                OFFSET  -3.911900  19.017000  -0.467064
                CHANNELS 3 Zrotation Xrotation Yrotation
                JOINT RightShoulder
                {
                    OFFSET -10.383700   0.000000   0.000000
                    CHANNELS 3 Zrotation Xrotation Yrotation
                    JOINT RightElbow
                    {
                        OFFSET -26.662100   0.001633   0.000260
                        CHANNELS 3 Zrotation Xrotation Yrotation
                        JOINT RightWrist
                        {
                            OFFSET -28.869000  -0.000045  -0.000080
                            CHANNELS 3 Zrotation Xrotation Yrotation
                            JOINT RightFinger0
                            {
                                OFFSET  -2.044660  -2.323490   3.252850
                                CHANNELS 3 Zrotation Xrotation Yrotation
                                JOINT RightFinger01
                                {
                                    OFFSET  -3.088140   0.000000   0.000000
                                    CHANNELS 3 Zrotation Xrotation Yrotation
                                    JOINT RightFinger02
                                    {
                                        OFFSET  -2.639450   0.000000   0.000000
                                        CHANNELS 3 Zrotation Xrotation Yrotation
                                        End Site
                                        {
                                            OFFSET  -2.582190   0.000000   0.000000
                                        }
                                    }
                                }
                            }
                            JOINT RightFinger1
                            {
                                OFFSET  -8.364480   0.000000   3.252850
                                CHANNELS 3 Zrotation Xrotation Yrotation
                                JOINT RightFinger11
                                {
                                    OFFSET  -4.646920   0.000000   0.000000
                                    CHANNELS 3 Zrotation Xrotation Yrotation
                                    JOINT RightFinger12
                                    {
                                        OFFSET  -2.323470   0.000000   0.000000
                                        CHANNELS 3 Zrotation Xrotation Yrotation
                                        End Site
                                        {
                                            OFFSET  -2.273050   0.000000   0.000000
                                        }
                                    }
                                }
                            }
                            JOINT RightFinger2
                            {
                                OFFSET  -8.364480   0.000000   1.078090
                                CHANNELS 3 Zrotation Xrotation Yrotation
                                JOINT RightFinger21
                                {
                                    OFFSET  -5.111610   0.000000   0.000000
                                    CHANNELS 3 Zrotation Xrotation Yrotation
                                    JOINT RightFinger22
                                    {
                                        OFFSET  -2.788160   0.000000   0.000000
                                        CHANNELS 3 Zrotation Xrotation Yrotation
                                        End Site
                                        {
                                            OFFSET  -2.727660   0.000000   0.000000
                                        }
                                    }
                                }
                            }
                            JOINT RightFinger3
                            {
                                OFFSET  -7.899780   0.000000  -1.078090
                                CHANNELS 3 Zrotation Xrotation Yrotation
                                JOINT RightFinger31
                                {
                                    OFFSET  -4.646930   0.000000   0.000000
                                    CHANNELS 3 Zrotation Xrotation Yrotation
                                    JOINT RightFinger32
                                    {
                                        OFFSET  -2.323470   0.000000   0.000000
                                        CHANNELS 3 Zrotation Xrotation Yrotation
                                        End Site
                                        {
                                            OFFSET  -2.273050   0.000000   0.000000
                                        }
                                    }
                                }
                            }
                            JOINT RightFinger4
                            {
                                OFFSET  -7.435090   0.000000  -3.252850
                                CHANNELS 3 Zrotation Xrotation Yrotation
                                JOINT RightFinger41
                                {
                                    OFFSET  -3.717550   0.000000   0.000000
                                    CHANNELS 3 Zrotation Xrotation Yrotation
                                    JOINT RightFinger42
                                    {
                                        OFFSET  -1.858760   0.000000   0.000000
                                        CHANNELS 3 Zrotation Xrotation Yrotation
                                        End Site
                                        {
                                            OFFSET  -1.818440   0.000000   0.000000
                                        }
                                    }
                                }
                            }
                        }
                    }
                }
            }
        }
    }
    JOINT LeftHip
    {
        OFFSET   9.782990   0.000000   0.000000
        CHANNELS 3 Zrotation Xrotation Yrotation
        JOINT LeftKnee
        {
            OFFSET  -0.000063 -41.789100   0.001657
            CHANNELS 3 Zrotation Xrotation Yrotation
            JOINT LeftAnkle
            {
                OFFSET   0.000078 -41.133200  -0.000113
                CHANNELS 3 Zrotation Xrotation Yrotation
                JOINT LeftToe
                {
                    OFFSET   0.000000  -6.358970  14.674500
                    CHANNELS 3 Zrotation Xrotation Yrotation
                    End Site
                    {
                        OFFSET   0.000000   0.000000   3.913200
                    }
                }
            }
        }
    }
    JOINT RightHip
    {
        OFFSET  -9.782990   0.000000   0.000000
        CHANNELS 3 Zrotation Xrotation Yrotation
        JOINT RightKnee
        {
            OFFSET   0.000053 -41.789200   0.000277
            CHANNELS 3 Zrotation Xrotation Yrotation
            JOINT RightAnkle
            {
                OFFSET   0.000030 -41.133200  -0.000150
                CHANNELS 3 Zrotation Xrotation Yrotation
                JOINT RightToe
                {
                    OFFSET   0.000000  -6.358960  14.674500
                    CHANNELS 3 Zrotation Xrotation Yrotation
                    End Site
                    {
                        OFFSET   0.000000   0.000000   3.913200
                    }
                }
            }
        }
    }
}
MOTION
Frames: 4
Frame Time:   0.016667
  0.664677  89.493300  -0.874292  -0.724097  -3.626610   0.843527   0.782104   2.908190   0.011123   1.566670   5.816270  -0.017590  -0.889747  -0.991491  -0.016889  -1.459180  -2.009520   5.070340  -8.678750   2.820800  -0.075084 -71.296800  16.960400  -8.612550  -1.152850  -0.510109  -9.921010   5.375090  -9.105250   3.008240  41.777800  28.446700 -56.996000 -23.986100   0.004299   0.004171  -6.998420   0.000194   0.000269 -34.916100   1.694010  -2.416070 -28.597000  -0.005032  -0.004360 -20.031000  -0.004910   0.000458 -28.221600  -0.700827   1.325080 -33.601600   0.000094  -0.004688 -22.378600  -0.002383  -0.003546 -28.169300  -1.371670   2.554870 -33.494800  -0.001583  -0.005395 -22.307600  -0.002736  -0.004114 -32.827900  -1.712340   2.634280 -49.301200  -0.002705   0.010391 -32.836100  -0.002333   0.002940   8.985310  -0.835893   5.824170  70.634600   6.771570  -0.317848   0.584334 -13.157800   6.306830  -4.555940 -14.154300   6.654170 -44.150900  29.623700  61.491600  20.236800   0.002848  -0.004619   5.120490   0.001455  -0.008091  24.941300   6.196930  13.067600  20.989700  -0.003794  -0.001022  14.692800  -0.004397  -0.000201  26.738000   5.737850  11.220400  28.310800  -0.003163  -0.001761  18.859200  -0.002618   0.000000  27.297900   3.846560   7.406740  29.426300  -0.000315  -0.002204  19.597900  -0.003553  -0.011429  29.258500   1.372160   2.447410  43.932100  -0.002829  -0.002001  29.258700  -0.008162   0.000311   1.713290   6.937790  -2.278160   0.632014   0.072567   9.294880  -3.278710  -3.841230   4.854720   0.000000   0.000000   0.000000  -0.126061   5.549380  -1.511430   0.586655   2.277560  -7.671040  -1.872780  -4.544490   1.925290   0.000000   0.000000   0.000000
  0.664647  89.493300  -0.866832  -0.724172  -3.617650   0.844527   0.782114   2.908150   0.011065   1.566700   5.816190  -0.017709  -0.889735  -0.991279  -0.016891  -1.459050  -2.008890   5.076550  -8.678760   2.820600  -0.075033 -71.297000  16.960500  -8.612600  -1.152730  -0.510195  -9.914150   5.376460  -9.105180   3.016270  41.777800  28.446700 -56.996000 -23.990700   0.004302   0.004170  -6.998420   0.000193   0.000269 -34.916000   1.694030  -2.416170 -28.597000  -0.005031  -0.004359 -20.031200  -0.004910   0.000458 -28.221600  -0.700823   1.325250 -33.595800   0.000095  -0.004688 -22.374800  -0.002383  -0.003546 -28.169300  -1.371510   2.554660 -33.485400  -0.001583  -0.005392 -22.301300  -0.002735  -0.004113 -32.822400  -1.712360   2.634280 -49.293100  -0.002705   0.010391 -32.836100  -0.002333   0.002941   8.985320  -0.835899   5.824130  70.634600   6.772890  -0.317931   0.588363 -13.157800   6.303220  -4.545130 -14.149400   6.653890 -44.155000  29.623700  61.491500  20.236600   0.002846  -0.004623   5.120310   0.001452  -0.008087  24.940000   6.192700  13.059800  20.987000  -0.003796  -0.001020  14.690900  -0.004397  -0.000199  26.738100   5.737830  11.220400  28.307800  -0.003159  -0.001757  18.855300  -0.002617  -0.000000  27.297400   3.848390   7.411250  29.418000  -0.000315  -0.002204  19.592400  -0.003549  -0.011427  29.252500   1.372160   2.447410  43.922900  -0.002831  -0.001998  29.252600  -0.008163   0.000311   1.712210   6.915900  -2.278070   0.631546   0.107263   9.294160  -3.282680  -3.865450   4.854030  -0.000000   0.000000   0.000000  -0.126071   5.549090  -1.511470   0.586011   2.273580  -7.670820  -1.873110  -4.544510   1.923680  -0.000000   0.000000   0.000000
  0.664570  89.493300  -0.854124  -0.724205  -3.603020   0.847699   0.782128   2.908060   0.010958   1.566730   5.816010  -0.017927  -0.889722  -0.991067  -0.016894  -1.459000  -2.008250   5.086110  -8.678780   2.820390  -0.074960 -71.297100  16.960700  -8.612650  -1.152510  -0.510287  -9.902670   5.377820  -9.105110   3.024300  41.777800  28.446700 -56.996000 -23.996800   0.004304   0.004168  -6.998420   0.000192   0.000268 -34.916000   1.694060  -2.416390 -28.597000  -0.005029  -0.004357 -20.031400  -0.004909   0.000458 -28.221500  -0.700816   1.325480 -33.590000   0.000097  -0.004686 -22.371000  -0.002383  -0.003547 -28.169300  -1.371360   2.554460 -33.474700  -0.001582  -0.005387 -22.294200  -0.002733  -0.004109 -32.816900  -1.712370   2.634280 -49.285000  -0.002704   0.010391 -32.836200  -0.002333   0.002944   8.985360  -0.835905   5.824070  70.634700   6.775650  -0.318025   0.595296 -13.157900   6.296980  -4.534330 -14.144500   6.653610 -44.160800  29.623700  61.491400  20.236300   0.002844  -0.004628   5.120140   0.001444  -0.008080  24.936100   6.186080  13.048600  20.981600  -0.003800  -0.001017  14.687100  -0.004397  -0.000196  26.738100   5.737780  11.220200  28.300600  -0.003150  -0.001750  18.848200  -0.002616   0.000000  27.296500   3.851760   7.418010  29.406600  -0.000313  -0.002204  19.584800  -0.003542  -0.011424  29.244000   1.372150   2.447390  43.910000  -0.002834  -0.001992  29.244000  -0.008164   0.000314   1.711120   6.894000  -2.277980   0.631079   0.141959   9.293450  -3.286650  -3.889660   4.853340   0.000000   0.000000  -0.000000  -0.126117   5.548790  -1.511550   0.584742   2.265600  -7.670580  -1.873640  -4.544600   1.919550   0.000000   0.000000   0.000000
  0.664435  89.493300  -0.843366  -0.723996  -3.591860   0.854106   0.782134   2.907890   0.010817   1.566750   5.815660  -0.018206  -0.890012  -0.993076  -0.016895  -1.460580  -2.012190   5.093320  -8.678750   2.820410  -0.074924 -71.295900  16.960800  -8.611810  -1.152150  -0.509509  -9.892880   5.377750  -9.105110   3.024030  41.772100  28.439600 -56.996800 -23.998500   0.004304   0.004175  -6.998830   0.000195   0.000260 -34.920700   1.694120  -2.416690 -28.600900  -0.005028  -0.004354 -20.031500  -0.004906   0.000457 -28.221500  -0.700812   1.325580 -33.595000   0.000104  -0.004682 -22.374300  -0.002382  -0.003545 -28.169300  -1.371390   2.555590 -33.473100  -0.001583  -0.005382 -22.293100  -0.002730  -0.004107 -32.818000  -1.712380   2.638070 -49.286500  -0.002701   0.010394 -32.836200  -0.002332   0.002947   8.985460  -0.835790   5.824040  70.635100   6.778990  -0.318039   0.601493 -13.158200   6.291210  -4.536040 -14.145000   6.654120 -44.164100  29.623700  61.491700  20.237700   0.002845  -0.004617   5.120180   0.001435  -0.008076  24.927000   6.180730  13.042700  20.973300  -0.003802  -0.001015  14.681300  -0.004408  -0.000195  26.738200   5.737710  11.220100  28.287200  -0.003140  -0.001745  18.839000  -0.002617  -0.000000  27.295700   3.855450   7.422490  29.402900  -0.000308  -0.002204  19.582400  -0.003537  -0.011429  29.240100   1.372120   2.447370  43.904100  -0.002834  -0.001987  29.240100  -0.008176   0.000319   1.711390   6.900430  -2.277780   0.627754   0.121289   9.293490  -3.285860  -3.885230   4.853300   0.000000   0.000000   0.000000  -0.127181   5.550270  -1.511650   0.583349   2.256810  -7.671370  -1.872790  -4.544820   1.911290   0.000000   0.000000   0.000000
